<svg width="128" height="129" viewBox="0 0 128 129" fill="none" xmlns="http://www.w3.org/2000/svg">
<path d="M90.3661 128.35C88.9061 128.35 87.448 128.168 85.989 127.803L15.059 110.483C9.77105 109.207 5.39505 105.743 2.65905 100.638C-0.0739517 95.5328 -0.620952 89.5158 0.655048 83.6818L16.883 17.8648C19.8 5.64879 31.105 -2.19021 42.045 0.544792L112.976 17.8648C123.916 20.5998 130.298 32.6328 127.198 44.8478L111.152 110.665C108.599 121.058 99.665 128.35 90.365 128.35H90.3661ZM37.669 1.81979C29.099 1.81979 21.076 8.56579 18.706 18.2298L2.65905 84.0468C1.38205 89.5168 1.92905 94.9858 4.48205 99.7268C6.85205 104.284 10.864 107.566 15.605 108.66L86.535 125.98C96.382 128.35 106.775 121.24 109.51 109.936L125.556 44.1188C128.291 32.9968 122.456 21.8758 112.61 19.3228L41.498 2.18479C40.222 2.00279 38.945 1.82079 37.669 1.82079V1.81979Z" fill="#BC3F00"/>
<path d="M110.24 110.3C107.322 121.969 96.564 129.444 86.171 126.892L15.423 109.571C5.03005 107.019 -0.98695 95.5328 1.74805 83.6808L17.7941 18.0468C20.7111 6.37679 31.469 -1.09721 41.861 1.45579L112.792 18.7758C123.185 21.3288 129.202 32.8148 126.467 44.6658L110.24 110.3Z" fill="#F45E22"/>
<path d="M110.97 37.5548C115.528 30.4448 118.263 25.8868 120.269 22.9698C118.081 20.9638 115.528 19.5048 112.429 18.7758L41.681 1.45679C31.287 -1.09721 20.529 6.37679 17.794 18.0458L1.74905 83.8648C0.109048 90.6098 1.38305 97.1738 4.66605 102.097C7.76605 97.7208 24.358 74.9308 44.051 68.3678C65.75 61.0748 98.206 57.4268 110.97 37.5548Z" fill="url(#paint0_linear_1_2)"/>
<path opacity="0.6" d="M110.97 37.5548C115.528 30.4448 118.263 25.8868 120.269 22.9698C118.081 20.9638 115.528 19.5048 112.429 18.7758L41.681 1.45679C31.287 -1.09721 20.529 6.37679 17.794 18.0458L1.74905 83.8648C0.109048 90.6098 1.38305 97.1738 4.66605 102.097C7.76605 97.7208 24.358 74.9308 44.051 68.3678C65.75 61.0748 98.206 57.4268 110.97 37.5548Z" fill="url(#paint1_linear_1_2)"/>
<g opacity="0.4">
<path opacity="0.4" d="M33.1111 25.7038H45.8751C49.1571 31.5388 51.1631 35.5498 52.0751 38.1018C52.9861 40.6548 53.3511 43.0248 53.3511 45.2118C53.3511 50.1348 51.3451 56.8818 47.3341 65.6318C44.2341 72.3778 42.4101 76.7538 41.6811 78.7588C41.1341 80.5828 40.7691 82.4058 40.7691 84.0468C40.7691 86.2348 41.3161 88.7868 42.2281 91.5218C43.1401 94.2568 45.5101 98.4498 48.9741 104.284H36.3931C33.1111 98.6318 31.1051 94.4388 30.1931 92.0688C29.2821 89.5158 28.9171 87.1458 28.9171 84.7758C28.9171 79.8528 31.1051 72.9258 35.2991 63.9918C38.2161 57.9748 40.0391 53.7818 40.7691 51.4118C41.4991 49.2238 41.8631 47.2178 41.8631 45.3948C41.8631 43.2068 41.4991 41.0188 40.5871 38.8308C39.6751 36.6438 37.1221 32.2678 33.1111 25.7038ZM58.0921 25.7038H70.8561C74.1381 31.5388 76.1441 35.5498 77.0561 38.1018C77.9671 40.6548 78.3321 43.0248 78.3321 45.2118C78.3321 50.1348 76.3261 56.8818 72.3141 65.6318C69.2141 72.3778 67.3911 76.7538 66.6621 78.7588C66.1151 80.5828 65.7501 82.4058 65.7501 84.0468C65.7501 86.2348 66.2971 88.7868 67.2091 91.5218C68.1211 94.2568 70.4911 98.4498 73.9561 104.284H61.3741C58.0921 98.6318 56.0861 94.4388 55.1741 92.0688C54.2631 89.5158 53.8981 87.1458 53.8981 84.7758C53.8981 79.8528 56.0861 72.9258 60.2801 63.9918C63.1971 57.9748 65.0201 53.7818 65.7501 51.4118C66.4801 49.2238 66.8441 47.2178 66.8441 45.3948C66.8441 43.2068 66.4801 41.0188 65.5681 38.8308C64.6561 36.6438 62.1031 32.2678 58.0921 25.7038ZM82.1611 25.7038H94.9251C98.2071 31.5388 100.213 35.5498 101.125 38.1018C102.037 40.6548 102.401 43.0248 102.401 45.2118C102.401 50.1348 100.395 56.8818 96.3841 65.6318C93.2841 72.3778 91.4611 76.7538 90.7311 78.7588C90.1841 80.5828 89.8201 82.4058 89.8201 84.0468C89.8201 86.2348 90.3671 88.7868 91.2791 91.5218C92.1901 94.2568 94.5611 98.4498 98.0251 104.284H85.4441C82.1621 98.6318 80.1561 94.4388 79.2441 92.0688C78.3321 89.5158 77.9681 87.1458 77.9681 84.7758C77.9681 79.8528 80.1561 72.9258 84.3501 63.9918C87.2671 57.9748 89.0901 53.7818 89.8201 51.4118C90.5501 49.2238 90.9141 47.2178 90.9141 45.3948C90.9141 43.2068 90.5491 41.0188 89.6371 38.8308C88.7261 36.6438 86.3551 32.2678 82.1611 25.7038Z" fill="#AA2502"/>
<path opacity="0.4" d="M58.0921 25.7038H70.8551C74.1381 31.5388 76.1431 35.5498 77.0551 38.1018C77.9671 40.6548 78.3311 43.0248 78.3311 45.2118C78.3311 50.1348 76.3261 56.8818 72.3141 65.8148C69.2141 72.5608 67.3911 76.9358 66.6621 78.9418C66.1151 80.7648 65.7501 82.5878 65.7501 84.2288C65.7501 86.4168 66.2971 88.9688 67.2091 91.7038C68.1201 94.4388 70.4911 98.6318 73.9551 104.466H61.3741C58.0921 98.8148 56.0861 94.6208 55.1741 92.2508C54.2631 89.6988 53.8981 87.3288 53.8981 84.9578C53.8981 80.0358 56.0861 73.1078 60.2801 64.1738C63.1971 58.1568 65.0201 53.9638 65.7501 51.5938C66.4801 49.4058 66.8441 47.3998 66.8441 45.5768C66.8441 43.3888 66.4791 41.2018 65.5681 39.0138C64.6561 36.6438 62.1031 32.2678 58.0921 25.7038ZM33.1111 25.7038H45.8751C49.1571 31.5388 51.1631 35.5498 52.0751 38.1018C52.9861 40.6548 53.3511 43.0248 53.3511 45.2118C53.3511 50.1348 51.3451 56.8818 47.3341 65.6318C44.2341 72.3778 42.4101 76.7538 41.6811 78.7588C41.1341 80.5828 40.7691 82.4058 40.7691 84.0468C40.7691 86.2348 41.3161 88.7868 42.2281 91.5218C43.1401 94.2568 45.5101 98.4498 48.9741 104.284H36.3941C33.1111 98.6318 31.1051 94.4388 30.1941 92.0688C29.2821 89.5158 28.9171 87.1458 28.9171 84.7758C28.9171 79.8528 31.1051 72.9258 35.2991 63.9918C38.2171 57.9748 40.0391 53.7818 40.7691 51.4118C41.4991 49.2238 41.8631 47.2178 41.8631 45.3948C41.8631 43.2068 41.4991 41.0188 40.5871 38.8308C39.6751 36.6438 37.1221 32.2678 33.1111 25.7038ZM82.1611 25.7038H94.9251C98.2071 31.5388 100.213 35.5498 101.125 38.1018C102.037 40.6548 102.401 43.0248 102.401 45.2118C102.401 50.1348 100.395 56.8818 96.3841 65.8148C93.2841 72.5608 91.4611 76.9358 90.7311 78.9418C90.1841 80.7648 89.8201 82.5878 89.8201 84.2288C89.8201 86.4168 90.3671 88.9688 91.2791 91.7038C92.1901 94.4388 94.5611 98.6318 98.0251 104.466H85.4441C82.1621 98.8148 80.1561 94.6208 79.2441 92.2508C78.3321 89.6988 77.9681 87.3288 77.9681 84.9578C77.9681 80.0358 80.1561 73.1078 84.3501 64.1738C87.2671 58.1568 89.0901 53.9638 89.8201 51.5938C90.5501 49.4058 90.9141 47.3998 90.9141 45.5768C90.9141 43.3888 90.5491 41.2018 89.6371 39.0138C88.7261 36.6438 86.3551 32.2678 82.1611 25.7038Z" fill="#AA2502"/>
</g>
<path d="M82.527 26.0688H94.926C98.208 31.7208 100.213 35.9138 101.125 38.4658C102.037 41.0188 102.402 43.3888 102.402 45.5768C102.402 50.4998 100.396 57.2448 96.384 65.9968C93.284 72.7428 91.461 77.1178 90.914 78.9408C90.367 80.7648 90.002 82.5878 90.002 84.2288C90.002 86.4168 90.549 88.9688 91.462 91.7038C92.372 94.4388 94.561 98.6318 98.025 104.466H85.626C82.526 98.8138 80.338 94.8028 79.609 92.2508C78.697 89.6978 78.333 87.3278 78.333 84.9578C78.333 80.0348 80.338 73.1078 84.533 64.3558C87.45 58.3388 89.273 54.1458 89.82 51.9578C90.55 49.7698 90.914 47.7648 90.914 45.9418C90.914 43.7538 90.549 41.5658 89.638 39.3778C89.091 36.8258 86.538 32.6318 82.527 26.0678V26.0688ZM58.457 26.0688H70.857C74.139 31.7208 76.144 35.9138 77.057 38.4658C77.967 41.0188 78.332 43.3888 78.332 45.5768C78.332 50.4998 76.327 57.2448 72.315 65.9968C69.215 72.7428 67.392 77.1178 66.845 78.9408C66.298 80.7648 65.933 82.5878 65.933 84.2288C65.933 86.4168 66.48 88.9688 67.392 91.7038C68.304 94.4388 70.492 98.6318 73.956 104.466H61.557C58.457 98.8138 56.269 94.8028 55.54 92.2508C54.628 89.6978 54.264 87.3278 54.264 84.9578C54.264 80.0348 56.269 73.1078 60.464 64.3558C63.381 58.3388 65.204 54.1458 65.751 51.9578C66.481 49.7698 66.845 47.7648 66.845 45.9418C66.845 43.7538 66.48 41.5658 65.569 39.3778C64.839 36.8258 62.469 32.6318 58.457 26.0678V26.0688ZM33.476 26.0688H45.875C49.157 31.9028 51.163 35.9138 52.075 38.4658C52.986 41.0188 53.351 43.3888 53.351 45.5768C53.351 50.4998 51.345 57.2448 47.334 65.9968C44.234 72.7428 42.411 77.1178 41.864 78.9408C41.317 80.7648 40.952 82.5878 40.952 84.2288C40.952 86.4168 41.499 88.9688 42.411 91.7038C43.322 94.4388 45.511 98.6318 48.975 104.466H36.575C33.475 98.8138 31.288 94.8028 30.558 92.2508C29.647 89.6978 29.282 87.3278 29.282 84.9578C29.282 80.0348 31.288 73.1078 35.482 64.3558C38.399 58.3388 40.222 54.1458 40.77 51.9578C41.681 49.4058 42.046 47.3998 42.046 45.5768C42.046 43.3888 41.681 41.2008 40.77 39.0138C40.04 36.8258 37.487 32.4498 33.476 26.0688Z" fill="white"/>
<defs>
<linearGradient id="paint0_linear_1_2" x1="25.599" y1="-20.1202" x2="71.656" y2="83.6768" gradientUnits="userSpaceOnUse">
<stop stop-color="white" stop-opacity="0.7"/>
<stop offset="0.023" stop-color="white" stop-opacity="0.709"/>
<stop offset="0.271" stop-color="white" stop-opacity="0.8"/>
<stop offset="1" stop-color="white" stop-opacity="0"/>
</linearGradient>
<linearGradient id="paint1_linear_1_2" x1="25.599" y1="-20.1202" x2="71.656" y2="83.6768" gradientUnits="userSpaceOnUse">
<stop stop-color="white" stop-opacity="0.7"/>
<stop offset="0.023" stop-color="white" stop-opacity="0.709"/>
<stop offset="0.271" stop-color="white" stop-opacity="0.8"/>
<stop offset="1" stop-color="white" stop-opacity="0"/>
</linearGradient>
</defs>
</svg>
